/* XPM */
static char *_8811_07c787f3a8dd1e6e01eeb9a0cc769578bbd9f04a82f01131bc28cf041486de27[] = {
/* columns rows colors chars-per-pixel */
"28 28 8 1 ",
"  c #090909",
". c gray10",
"X c #232323",
"o c gray17",
"O c #263C6C",
"+ c #4E4E4E",
"@ c #EEC39A",
"# c None",
/* pixels */
"###########...##############",
"##########.....#############",
"##########..@@##############",
"##########OOOO##############",
"###########OO####o##########",
"#########..OO.#ooo####o#####",
"########OO+++++++++++++++###",
"########OO+oOO...o..++######",
"########OOOOOO..O+.#########",
"########.OOO..#OO+##########",
"########..     #############",
"########.. . . #############",
"########..     #############",
"#######+++OOOO##############",
"########....+. #############",
"########..OOOO.#############",
"########O.OOOO##############",
"########OOO#OOO#############",
"#######OOO##OOO#############",
"#######OOO###OO#############",
"#######..####..#############",
"#######..#####..############",
"######OO######OO############",
"######OO######OO############",
"######O########O############",
"######X########X############",
"#####XX########XX###########",
"#####XX########XXX##########"
};
