/* XPM */
static char *_1104_0916f6dba410e572b0a61141d2aee204147aad79c638345d7c76b329aef2f000[] = {
/* columns rows colors chars-per-pixel */
"28 53 235 2 ",
"   c #020202",
".  c #0A0101",
"X  c #030B02",
"o  c #0B0B04",
"O  c #03020B",
"+  c #020A0B",
"@  c #0B0B0C",
"#  c #09020D",
"$  c #140301",
"%  c #1C0C01",
"&  c #14000C",
"*  c #130D0A",
"=  c #190A06",
"-  c #0E110D",
";  c #14110F",
":  c #18140B",
">  c #040313",
",  c #0B0611",
"<  c #020912",
"1  c #0C0B13",
"2  c #0C0B1A",
"3  c #07071D",
"4  c #120A17",
"5  c #0E1214",
"6  c #0F171A",
"7  c #141514",
"8  c #1C1B15",
"9  c #15151B",
"0  c #1B131B",
"q  c #13191B",
"w  c #1B1B1B",
"e  c #1A1313",
"r  c #290D04",
"t  c #27160A",
"y  c #341906",
"u  c #231B14",
"i  c #291D1D",
"p  c #281A13",
"a  c #2E0E14",
"s  c #1A2219",
"d  c #29231A",
"f  c #372D1C",
"g  c #0D1921",
"h  c #1B1D24",
"j  c #181923",
"k  c #11193D",
"l  c #261E28",
"z  c #192328",
"x  c #232423",
"c  c #242729",
"v  c #242A2A",
"b  c #2E2E2E",
"n  c #2B2726",
"m  c #302D29",
"M  c #382C22",
"N  c #2D312C",
"B  c #34322A",
"V  c #242B35",
"C  c #362B35",
"Z  c #2A3135",
"A  c #373939",
"S  c #522E17",
"D  c #422D18",
"F  c #4B392C",
"G  c #3E403F",
"H  c #10713C",
"J  c #4B4139",
"K  c #694C35",
"L  c #3A2C46",
"P  c #353747",
"I  c #3A2B53",
"U  c #3A3455",
"Y  c #2B2B52",
"T  c #3D3D6B",
"R  c #2F346E",
"E  c #463A45",
"W  c #423B5C",
"Q  c #443757",
"!  c #432F4B",
"~  c #453D64",
"^  c #4A3E6A",
"/  c #453A69",
"(  c #523D63",
")  c #523C6C",
"_  c #4B3C76",
"`  c #3F454A",
"'  c #046F4C",
"]  c #06744A",
"[  c #0C744E",
"{  c #4A4C4B",
"}  c #454647",
"|  c #4E504F",
" . c #47455B",
".. c #4E5357",
"X. c #585857",
"o. c #574B52",
"O. c #665645",
"+. c #775945",
"@. c #745D55",
"#. c #6D5B51",
"$. c #776451",
"%. c #4C4362",
"&. c #4D446B",
"*. c #4E486A",
"=. c #46426B",
"-. c #514965",
";. c #51456D",
":. c #534C6D",
">. c #564465",
",. c #4D4573",
"<. c #4D4974",
"1. c #4B457C",
"2. c #4E4B79",
"3. c #434A74",
"4. c #544573",
"5. c #534A74",
"6. c #54457B",
"7. c #53497A",
"8. c #5B477A",
"9. c #555278",
"0. c #4F536D",
"q. c #664679",
"w. c #6A6968",
"e. c #79756F",
"r. c #9C6B33",
"t. c #A76639",
"y. c #B36A3B",
"u. c #9C704A",
"i. c #896C50",
"p. c #A76B46",
"a. c #B46946",
"s. c #B17550",
"d. c #987361",
"f. c #C15D5D",
"g. c #FB695E",
"h. c #FD6C76",
"j. c #E0756F",
"k. c #9D8164",
"l. c #B8926C",
"z. c #BD9379",
"x. c #B89478",
"c. c #A9856E",
"v. c #EC9B5E",
"b. c #DE9E6A",
"n. c #D69B6A",
"m. c #C19379",
"M. c #CC8C6F",
"N. c #E29F6E",
"B. c #E49F76",
"V. c #DCA56C",
"C. c #DDA173",
"Z. c #DCA378",
"A. c #D4A97F",
"S. c #CDA67B",
"D. c #E2A46C",
"F. c #E6A568",
"G. c #E2A173",
"H. c #E4AB7C",
"J. c #EAA676",
"K. c #F0A56E",
"L. c #483F91",
"P. c #65369E",
"I. c #3B4898",
"U. c #334C93",
"Y. c #3D4BA3",
"T. c #4E4B84",
"R. c #4D4B8D",
"E. c #4B458C",
"W. c #554886",
"Q. c #4A449A",
"!. c #494698",
"~. c #4E4B8D",
"^. c #4A41A2",
"/. c #4A49A6",
"(. c #554CAA",
"). c #4B4DB4",
"_. c #534EAA",
"`. c #878584",
"'. c #979A9F",
"]. c #B89881",
"[. c #A8A8A8",
"{. c #BBB8AE",
"}. c #B4B4B4",
"|. c #BBBBBB",
" X c #FA8693",
".X c #FF9090",
"XX c #EE8A89",
"oX c #CDA988",
"OX c #D8A986",
"+X c #D4B389",
"@X c #C9AC93",
"#X c #D3B196",
"$X c #CEB49D",
"%X c #E6A981",
"&X c #E8B486",
"*X c #E5B998",
"=X c #F8BC8F",
"-X c #F7BDA9",
";X c #BEC0B5",
":X c #E9C49C",
">X c #FED39B",
",X c #F4CE9C",
"<X c #E9C6A8",
"1X c #FDCDAC",
"2X c #F7C6A7",
"3X c #FED4A4",
"4X c #FCDBA3",
"5X c #FED5AD",
"6X c #FEDCAC",
"7X c #F6DBA8",
"8X c #F6C9BB",
"9X c #FDD6B1",
"0X c #FCDBB3",
"qX c #F8D7B5",
"wX c #EFCAB0",
"eX c #F3E1BD",
"rX c #C3C3C3",
"tX c #CCCCCB",
"yX c #C8C8CA",
"uX c #DDDEDC",
"iX c #D6D8D7",
"pX c #D2D4D0",
"aX c #FADCC2",
"sX c #E4DBDE",
"dX c #E1E4DA",
"fX c #F4E2CE",
"gX c #D9EAE4",
"hX c #EAE8E9",
"jX c #FBFEEA",
"kX c #F5F5F5",
"lX c #FCFDF5",
"zX c #F5FEFE",
"xX c #FEFEFE",
"cX c #F9F7F9",
"vX c #F4EEEF",
/* pixels */
"xXxXkXxXxXxXxXxXxXxXkX[.w.} q   G X.w.w.`.|.kXxXxXcXxXxX",
"lXxXxXxXxXxXxXxXxXuXx X o 9         @ @ @ b w.tXuXxXxXxX",
"xXxXxXxXkXxXcXrXw.- 8 q x 7 7 8   @ - 7 } A 5 { [.vXxXxX",
"xXxXxXxXxXcX}.}   o   -   o . @ w s c c h v c + X.[.xXxX",
"xXxXxXxXcXiX{   - s v z @ @ : u b { ....{ ` A   Z e.xXxX",
"xXxXcXhXtXe.X @ N v z N q - w A { ..X...P 6 5 s J } yXxX",
"xXxXxXiXk.7 o @ N z z g z V B J X.| { } V 6 5 z V 8 w.xX",
"xXxXzXpXg   @ o v G g g h v m o.X.X.A z z V z + @ 7 { xX",
"xXxXcXyXO O . t f u @ 7 w d m b B d u : i i p $ u e B xX",
"xXxXxXhX. X   - s 5 j z 9 u n u d i . % p t p M A * C pX",
"xXzXzXdXt f :   : o 5 5 X o o 8 w @ * ; . = M w.e.= m X.",
"xXxXcXpXF +.#.y % . . X ; o   . . . . . p D +.*X#Xy f J ",
"kXxXcXhX} #.@Xc.@.i 4 r e ,   p 0   . O.@X+X*X2X$XK J @.",
"cXxXxXzXx O.#XH.%XoXd.y r   v f * p d.:X&XH.&X*Xc.#.`.'.",
"xXcXxXlX$ S OXH.V.oXqXoXi.; 8 <X3X>X,X=XH.J.K.K.K +.{.iX",
"xXxX  . oXJ.s.a.$ w F S d.r k.=XH.OXF : o = u.a.A.+Xt . ",
"xXzX  + b.C.a.y.. . e d K t F.%XF.D.d   ,   t.y.F.A.% X ",
"xXxX.   6X6Xp.u.G.n.7 : c F V.D.Z.%X@   D.F.u.a.4XwX=   ",
"xXzX. . 0X9Xt.y.B.N.  $ % i.B.Z.D.b.X . C.n.s.r.qXfX    ",
"lXzXcXzX+ . s.t.6X5X] ] d.@X4X6X0X1X[ [ 7X0Xt.a.. . xXxX",
"jXxXlXxX  . p.a.6X0XH [ 0X0X0X3X3X9X] ' qX0Xt.a.    xXcX",
"xXcXxXcXzXxX.   B.N.qX5XqX0X1X0X0X0X4X6XF.n.#   zXxXxXxX",
"xXcXxXxXlXxX    n.Z.5X6XaX3X7X>X3X8X0X5XC.V..   xXxXkXkX",
"lXxXxXzXxXxXX O     b.V.4X0X6X0X4X0XF.C..     O xXxXxXxX",
"xXxXlXxXxXxX      . Z.v.aX0X7X7X5X7XN.Z..       xXxXxXcX",
"lXxXxXxX  O :.;.8.T.3 2 hXkXh.h.cXhX& > 8.4.7.:.    lXxX",
"lXxXxXxX    >.6.=.9.1 , pXsXXX XvXgX1 6 *.5.!.2.O   yXlX",
"xXxXxXcX  O W 8.q.<.T.C a h..XXXg.& U 4. .T._.E. .  n hX",
"xXxXlXxX  >  .Q >.8./.R.=.a  X Xa I.1.(  .I.Y.Q. .1 8 uX",
"xXlX  0  .^ ^ ) Q.!.I./.,.+ f.g.j ).L._ ( W._.!.^ U   X ",
"jXcX# U ;.;./ ^ &.R./.).2.V 0 $ U.I._ ) 4._ ^.)._  .O   ",
"  > 4._ ;.%.%.%.X $ E.!.!.6.3 X P.0.*.Q k X R.I.1.T     ",
"    *.5.2.1.-.7..   8.7.<.U + o 5.8.4.~ 4 > T.W.1.%.O   ",
"+ . z.M.M.z.. O     3.7.) I , < T =.1.> = o.:.( W.%.@   ",
"  # l.x.x.l.        q.&.P , o r O C Y 3 o.8.7.1._ *.O   ",
"  < l.x.x.l.O     & U U } $ j.h.9   U . *X2X:XwX^ %.  @ ",
"O + z.z.x.m.  O     ) Q L > dXvXX q R , :X-X2X8X-.-.O   ",
"xXkX. X q n xXxX@ & I Q 2 + lXcXw   T , +X:X,X<X4 @ xXxX",
"lXxX    O . zXcX  6 L 0 @   s i   . Q $ <X<X<X2X    xXxX",
"xXxXxXxXxXxXxXxX.   P O O L L U 5 # l P e @ < % xXxXxXxX",
"xXxXxXxXxXxXxXxX    O # ! T %.:.Q .   U o : *   xXxXxXxX",
"xXxXxXxXxXxXxXxX    > U  .8.  > &.*.> 3 1   lXxXxXxXxXxX",
"xXxXxXxXxXxXxXxX     ._ T.5.    7.,.1.Y     xXxXxXxXxXxX",
"xXxXxXxXxXxXxXxX    9.!.E.<.    7.T.Q.~.    xXlXxXxXxXxX",
"xXxXxXxXxXxXxXxX.   2.(.Q.T.    *.^./.Q.    jXxXxXxXxXxX",
"xXxXxXxXxXxXxXxX    2.Q.E./ . # <.(.^.^.    xXxXxXxXxXxX",
"xXxXxXxXxXxXxXxX  1 2.E.,.2.    ) :.1.~.  X xXxXxXxXxXxX",
"xXxXxXxXxXxXxXxX  > 2.6.*.~     , X   9 O   ;X{.xXxXxXxX",
"xXxXxXxXxXcXxXxX    5.4.^ ^ @               |.|.xXxXxXxX",
"cXxXxXxX|.|.|.}.    5.^ ~ ;.5   |.}.}.}.|.yX}.|.xXxXxXxX",
"xXxXxXxX}.rX|.;XO   >.%.%.(   O |.|.|.|.|.|.|.|.xXxXxXxX",
"cXxXxXxXcXcXrX|.  O 2 l l 2     |.rXxXxXxXkXxXxXxXxXxXxX",
"xXxXxXcXxXxX|.|.    o   X @     |.|.xXxXxXxXxXxXxXxXxXxX"
};
