/* XPM */
static char *_4177_ddedf758245d2aea02ba4784a4e1eef4dd718f704d41c499e9c400e944ab7260[] = {
/* columns rows colors chars-per-pixel */
"28 28 58 1 ",
"  c #00010F",
". c #010614",
"X c #060913",
"o c #030A1C",
"O c #090D19",
"+ c #0E151F",
"@ c #14141A",
"# c #191A1B",
"$ c #050D20",
"% c #0D1426",
"& c #121623",
"* c #161A24",
"= c #1A1C24",
"- c #101729",
"; c #151B2D",
": c #1C1E2A",
"> c #1A1F32",
", c #201F24",
"< c #1B202C",
"1 c #222123",
"2 c #26262B",
"3 c #2A2A2D",
"4 c #2C2D31",
"5 c #34343B",
"6 c #373A3F",
"7 c #3B3B3D",
"8 c #242A42",
"9 c #2F3644",
"0 c #2C354B",
"q c #343744",
"w c #353A46",
"e c #3C3D43",
"r c #303749",
"t c #343B4B",
"y c #393C4A",
"u c #2E3A53",
"i c #333C52",
"p c #393F52",
"a c #353F58",
"s c #3D404F",
"d c #3B4456",
"f c #424149",
"g c #4D4D4D",
"h c #434753",
"j c #4B4E53",
"k c #4A4D5E",
"l c #4E5054",
"z c #4D515C",
"x c #515151",
"c c #444B61",
"v c #CBCBD2",
"b c gray97",
"n c #F8F6F7",
"m c #FAFAF7",
"M c #F4F6FD",
"N c #F9F7FA",
"B c #F4FBFE",
"V c #FEFEFE",
/* pixels */
"VmVVVVVVVVVmVV@,*VVVVNVVVVVV",
"mVVbVVVNmmmVV=#=@*VVNVVVVVVV",
"VVmVVVVVVVVVVNvv::NMVVNVmVVV",
"VVVVNVVVVmVVNVfqywVVnVNVVVVV",
"mVVVVVVVVV3VVMNyqMVVVVVVVVVV",
"VmVVV3VVVV332V:yp;&NVVnVVVVV",
"mVmxgxggggjjjkhcccpyVVVVmmVV",
"mVVVmVxg##4#*=st8cryBVVVmVVV",
"VVVVVVVVV#g6**tsiupqVVVmmVVV",
"VVVVVVVVmVgs6B<-0dt-BVVVVVVV",
"VVVVVVVmVVBBVO.oo$%<MVVVVVVV",
"VVVVVVVVVVVVV.;.;o*+VVVVVVVV",
"VVVVVVVVVVVVMX.oO.&<VVVVVVVV",
"VVVVVVVVVVbVVBww9wzljVNVVVVV",
"VVVVVVVVmVVBVX*z<**@VVVVVVVV",
"VVVVVVVmmVVVV*tt9t+:VVVVVVVV",
"VVVmVVVVVmVVBBuuus-sMBBVVVVV",
"VmVVVVVVmVVBBduuB0d0BBBVVmmm",
"VVVVVVmVVBVMBdudBBd9tVVVVVmm",
"VVVVVVVVVVVVB00BBB0twBBVVVVV",
"VVVVVVVVVVVVV%>MBBB**VVVVVVm",
"VVVVVVVVVmVV=;MVVMV**VVVVVVV",
"VVVVVVVVVmVV5sBVVVVV55VVVVmV",
"VVVVVVVmVVVV77VVVBVVeeBVVVVV",
"VVVVVVVVVVVV7VVVVVVVNeNVVVVV",
"VVVVVVVVVVVV1VVVmVVVV2VVVVVV",
"VVVVVmVVVNV22mmVVVVVV22VVVVV",
"VVVVVmVVVV,,1VmmmVVVV,,mVVmV"
};
