/* XPM */
static char *e47a9d69d7d542a1f4238591c1d4527bdvVzCyZVOMVu6jEy[] = {
/* columns rows colors chars-per-pixel */
"28 28 114 2 ",
"   c None",
".  c #00091C",
"X  c #774F17",
"o  c #7B5118",
"O  c #A38B0B",
"+  c #A78F0B",
"@  c #A0880C",
"#  c #A2890C",
"$  c #A78F0C",
"%  c #A9910B",
"&  c #AA920B",
"*  c #AA930C",
"=  c #AF940C",
"-  c #B39D0B",
";  c #B88D10",
":  c #B9A10A",
">  c #C0A60A",
",  c #C0A909",
"<  c #C3AD0A",
"1  c #C4AE09",
"2  c #C5AF09",
"3  c #C6AF0A",
"4  c #CBAF09",
"5  c #CEAF0C",
"6  c #D6B807",
"7  c #D4BC06",
"8  c #D8B60A",
"9  c #D2BA0B",
"0  c #DBC206",
"q  c #DCC606",
"w  c #DFC707",
"e  c #DCC20B",
"r  c #DEC60A",
"t  c #E0C006",
"y  c #E1C807",
"u  c #E3C906",
"i  c #E1CB06",
"p  c #E2CA07",
"a  c #EACF07",
"s  c #ECCF05",
"d  c #E0C308",
"f  c #E2C308",
"g  c #E0C70B",
"h  c #E5C709",
"j  c #E5CA09",
"k  c #E7CD08",
"l  c #EBCF09",
"z  c #E8CE0A",
"x  c #E9D106",
"c  c #EBD107",
"v  c #ECD304",
"b  c #EFD504",
"n  c #EFD405",
"m  c #EFD604",
"M  c #EED407",
"N  c #EFDB05",
"B  c #ECD308",
"V  c #EBD408",
"C  c #EFD508",
"Z  c #F2D307",
"A  c #F0D505",
"S  c #F0D707",
"D  c #F7DF03",
"F  c #F1D906",
"G  c #F5DD05",
"H  c #F4DC06",
"J  c #FADB07",
"K  c #FADD06",
"L  c #FBDD06",
"P  c #F9DE08",
"I  c #F7E005",
"U  c #F7E105",
"Y  c #F6E205",
"T  c #F8E005",
"R  c #F9E205",
"E  c #FAE304",
"W  c #FAE405",
"Q  c #FAE505",
"!  c #FBE604",
"~  c #FCE405",
"^  c #FFE505",
"/  c #FCE604",
"(  c #FDE604",
")  c #FCE704",
"_  c #FCE705",
"`  c #FFEB03",
"'  c #FFEE03",
"]  c #FEE804",
"[  c #FEE904",
"{  c #FEEA04",
"}  c #FFEA04",
"|  c #FFEB04",
" . c #FFEA05",
".. c #FFEB05",
"X. c #FFEA06",
"o. c #FFEC04",
"O. c #FFED04",
"+. c #FFEC05",
"@. c #FFEE04",
"#. c #FFEE05",
"$. c #FFEF05",
"%. c #FFEF06",
"&. c #FFF203",
"*. c #FFF303",
"=. c #FFF105",
"-. c #FFF204",
";. c #FFF504",
":. c #FFF604",
">. c #FFF803",
",. c #FFF903",
"<. c #FFF904",
"1. c #FFF905",
"2. c #FFFC04",
"3. c #FFFC05",
/* pixels */
"                                                        ",
"                                                        ",
"                  . .                                   ",
"                  o X                                   ",
"                  ; ;                                   ",
"              7 q C B                                   ",
"              q 3.<.                                    ",
"          O < N <.:.                                    ",
"          $ r { >.-.{                                   ",
"          $ 9 I *.@.` `                                 ",
"          $ e I ' @.@.@.                                ",
"          * 2 x / { <.{                                 ",
"              2 V { <.{ c                               ",
"              # r ! -.{ B f                             ",
"              * z E @.{ @.E                             ",
"              * 2 p E { :.@.@.                          ",
"                  - k D { @.-.@.                        ",
"                    > j K / K S { !                     ",
"                      = u S 8 j @.:.F                   ",
"                        : B Z L / -.X.D H %.{ n         ",
"                        # : u n z E { X.%.3.@.n         ",
"                              5 f J L / { %.p           ",
"                                4 6 t s n 0             ",
"                                                        ",
"                                                        ",
"                                                        ",
"                                                        ",
"                                                        "
};
