/* XPM */
static char *_e071b091884465ebc707cecb999ab6dGPJ5Q3sBfPX2pAP6[] = {
/* columns rows colors chars-per-pixel */
"28 28 173 2 ",
"   c None",
".  c black",
"X  c #020202",
"o  c #1E1E1E",
"O  c gray14",
"+  c #252525",
"@  c gray15",
"#  c #272727",
"$  c gray17",
"%  c #252130",
"&  c #313131",
"*  c #313635",
"=  c #690000",
"-  c #444F32",
";  c #464646",
":  c gray28",
">  c #810000",
",  c #8A0000",
"<  c #8B0000",
"1  c #980004",
"2  c #9B0004",
"3  c #8A1818",
"4  c #891A1A",
"5  c #8B1E1C",
"6  c #8A211D",
"7  c #89371E",
"8  c #923312",
"9  c #923618",
"0  c #8B2723",
"q  c #8A3F29",
"w  c #8B3E2D",
"e  c #855629",
"r  c #8E4647",
"t  c #914949",
"y  c #946540",
"u  c #887547",
"i  c #877B4A",
"p  c #877D4B",
"a  c #877F4D",
"s  c #987648",
"d  c #9F4E60",
"f  c #9E5661",
"g  c #9D6465",
"h  c #9F6769",
"j  c #987861",
"k  c #A06B6E",
"l  c #A87B7B",
"z  c #769E46",
"x  c #799F50",
"c  c #7DA155",
"v  c #79A655",
"b  c #7EB264",
"n  c #868F55",
"m  c #948E55",
"M  c #8E9050",
"N  c #8D9F5B",
"B  c #9A9951",
"V  c #899E64",
"C  c #A09661",
"Z  c #84A261",
"A  c #84A361",
"S  c #85A361",
"D  c #84A362",
"F  c #83A461",
"G  c #84A461",
"H  c #84A462",
"J  c #84A562",
"K  c #84A463",
"L  c #84A563",
"P  c #85A563",
"I  c #84A664",
"U  c #80AE63",
"Y  c #89A769",
"T  c #93A963",
"R  c #87B267",
"E  c #93B167",
"W  c #91B26A",
"Q  c #98BD71",
"!  c #97C06B",
"~  c #9CC274",
"^  c #9CCA7D",
"/  c #A4C073",
"(  c #A4CC7A",
")  c #AE8C8C",
"_  c #B89E9E",
"`  c #98B281",
"'  c #99B182",
"]  c #9BB689",
"[  c #A2B590",
"{  c #A3B791",
"}  c #A0A0A0",
"|  c gray65",
" . c #A9A9A9",
".. c #ADAEAE",
"X. c #B9A2A2",
"o. c #BBBBBB",
"O. c #CCACAC",
"+. c #C7B9B9",
"@. c #DABFBF",
"#. c #B3C59B",
"$. c #C1D6B8",
"%. c #CCC4C2",
"&. c #CFC6C6",
"*. c #D1C7C7",
"=. c #D7CBCB",
"-. c #D9CFCF",
";. c #D1D5CD",
":. c #D6D0D0",
">. c #D8D4D4",
",. c #DAD5D6",
"<. c #D8D8D8",
"1. c gray85",
"2. c #DBD8D8",
"3. c #DBDDDD",
"4. c gainsboro",
"5. c #DCDDDD",
"6. c #DDDDDD",
"7. c #DEDCDC",
"8. c #DDDEDE",
"9. c gray87",
"0. c #DFDFDE",
"q. c #DEDFDF",
"w. c #DFDFDF",
"e. c #E0DBDD",
"r. c #E0DFDF",
"t. c #DEE0DE",
"y. c #DFE0E0",
"u. c gray88",
"i. c #E1E0E0",
"p. c #E1E1E1",
"a. c #E1E2E2",
"s. c #E2E2E2",
"d. c #E4E2E4",
"f. c #E4E3E4",
"g. c #E4E2E5",
"h. c #E3E4E4",
"j. c #E4E4E4",
"k. c gray90",
"l. c #E5E6E6",
"z. c #E5E6E7",
"x. c #E5E8E7",
"c. c #E7E5E9",
"v. c #E5E7E8",
"b. c #E7E7E8",
"n. c #E7EAEA",
"m. c #E9E9EB",
"M. c gray92",
"N. c #EAEFEF",
"B. c #ECECEC",
"V. c #EDEEEE",
"C. c #EFF0EF",
"Z. c #EFECF1",
"A. c #EEF4F4",
"S. c gray94",
"D. c #F0F0F1",
"F. c #F1F2F2",
"G. c gray95",
"H. c #F3F3F3",
"J. c #F4F3F3",
"K. c #F4F4F4",
"L. c #F4F5F5",
"P. c gray97",
"I. c #F4F8F7",
"U. c #F5F3F9",
"Y. c #F8F5F9",
"T. c #F8F8F8",
"R. c #F9F9F9",
"E. c gray98",
"W. c #FBFCFD",
"Q. c #FAFDFD",
"!. c #FCFDFD",
"~. c #FEFEFE",
"^. c white",
/* pixels */
"                                                        ",
"            D ~ L                     L ~ F             ",
"        n / I L Q L       W 1       D Q L L / n         ",
"      m q a     D D     s L p 1     D L     a q m       ",
"  3 6 <           ( D   ^ D i C   L (           < 6 3   ",
"  3               D L U   Y u   b I D               3   ",
"                    E j b.z R b.j T                     ",
"                    9 f !.;.- I.d N                     ",
"                    M 7 ] d.% r 6 8                     ",
"                  -.e V 0 s.* > w.h =.                  ",
"                P.k.D.,.g s.O 3.-.m.x.K.                ",
"              *.T.s.s.k.x.w.O 3.l *.k.T.s.              ",
"            = O.L.    D.w.w.O <.Q.    s.!.s.            ",
"            _ @.X.    C.s.w.# <.D.    s.!.s.            ",
"            C.%.      Y.s.w.o <.J.      r.t.            ",
"            d.U.      $.s.s.: <.D.      Z.b.            ",
"            { `       y k.w.; <.D.      ` {             ",
"            v B w   k e.s.r.} w.k.s.  c ! x             ",
"                    #.m.s.i...t >.!.                    ",
"                    K.i.i.w. .4.t.J.                    ",
"                    D.s.s.w. .w.m.L.                    ",
"                  !.s.s.s.w. .w.+.2.!.                  ",
"                  V.s.s.y.w. .y.) :.V.                  ",
"                  !.T.T.T.K.o.K.!.!.!.                  ",
"                  |                 |                   ",
"                X X                 X X                 ",
"              O $ &                 & $ O               ",
"                                                        "
};
