/* XPM */
static char *_467_3e64f0c55ea5e11ee47b44696c681f059371ffa21cddcced5e229cf95d3ef229[] = {
/* columns rows colors chars-per-pixel */
"28 28 130 2 ",
"   c #0E5DEF",
".  c #0D5AF1",
"X  c #0D5BF1",
"o  c #0E5AF0",
"O  c #0E5BF0",
"+  c #0E5CF0",
"@  c #0D5EF0",
"#  c #0E5FF0",
"$  c #0E63EF",
"%  c #0F64EF",
"&  c #0E6BEF",
"*  c #0F70EF",
"=  c #0F7CEE",
"-  c #0D61F0",
";  c #0E60F0",
":  c #0E61F0",
">  c #0E61F1",
",  c #0D62F0",
"<  c #0D63F0",
"1  c #0E62F0",
"2  c #0F62F0",
"3  c #0E63F0",
"4  c #0E62F1",
"5  c #0E63F1",
"6  c #0D64F0",
"7  c #0E64F0",
"8  c #0E65F0",
"9  c #0E64F1",
"0  c #0E62F7",
"q  c #0E6CF0",
"w  c #0F64F9",
"e  c #0F66FA",
"r  c #0F6AFF",
"t  c #0D70F0",
"y  c #0E71F0",
"u  c #0F72F0",
"i  c #0E75F1",
"p  c #0E77F1",
"a  c #0D78F0",
"s  c #0E78F0",
"d  c #0E7CF0",
"f  c #0E75FA",
"g  c #0E76FA",
"h  c #0F71FF",
"j  c #0F72FE",
"k  c #0F76FF",
"l  c #0E7CFE",
"z  c #0F7CFF",
"x  c #1077FE",
"c  c #107BFF",
"v  c #107CFF",
"b  c #00ACDE",
"n  c #00ADDE",
"m  c #00B3D7",
"M  c #00B5D5",
"N  c #00B4D6",
"B  c #00B7D6",
"V  c #3DBDD5",
"C  c #0F88EE",
"Z  c #0F8DEE",
"A  c #0E8EEF",
"S  c #009EEA",
"D  c #079CEB",
"F  c #009BEC",
"G  c #1297EB",
"H  c #1196EE",
"J  c #109AEB",
"K  c #109EE9",
"L  c #129CEB",
"P  c #1098ED",
"I  c #1099ED",
"U  c #119AED",
"Y  c #1798ED",
"T  c #0D82F1",
"R  c #0D87F1",
"E  c #0E87F0",
"W  c #0E88F0",
"Q  c #0E8AF0",
"!  c #0E8BF0",
"~  c #0F88F3",
"^  c #0F8CF0",
"/  c #0E8FF7",
"(  c #0F80FF",
")  c #1081FE",
"_  c #1186FF",
"`  c #1187FF",
"'  c #0F91F9",
"]  c #1592F3",
"[  c #1993F2",
"{  c #139FF6",
"}  c #00A8E2",
"|  c #00ABE2",
" . c #02A8E5",
".. c #11A6E6",
"X. c #11A7E6",
"o. c #11A8E6",
"O. c #00B7E6",
"+. c #00BAE1",
"@. c #00B9E4",
"#. c #00B6E8",
"$. c #13A7F2",
"%. c #13A0F5",
"&. c #14A8F1",
"*. c #21ADE2",
"=. c #54BBDA",
"-. c #60BFD8",
";. c #00C4D7",
":. c #00C3DA",
">. c #47CAD6",
",. c #45C8D9",
"<. c #73C7D2",
"1. c #77C9D1",
"2. c #74C8D2",
"3. c #75C8D2",
"4. c #A6CDD9",
"5. c #BCD2DB",
"6. c #BCDAE1",
"7. c #C2DCE0",
"8. c #E2DDE0",
"9. c #E4DDE0",
"0. c #E5DDE0",
"q. c #E8DFE0",
"w. c #D5E0E5",
"e. c #DCE2E4",
"r. c #FFEBEC",
"t. c #FFECED",
"y. c #FFEDED",
"u. c #FFEEED",
"i. c #FFEFEE",
"p. c None",
/* pixels */
"p.p.p.p.p.p.p.p.p.p.p.p.p.p.p.p.p.p.p.p.p.p.p.p.p.p.p.p.",
"p.p.p.p.p.p.p.p.p.p.p.p.p.p.p.p.p.p.p.p.p.p.p.p.p.p.p.p.",
"p.p.p.p.p.p.p.p.p.p.p.p.p.p.p.p.p.p.p.p.p.p.p.p.p.p.p.p.",
"p.p.p.p.p.p.p.p.p.p.p.p.p.p.p.p.p.p.p.p.p.p.p.p.p.p.p.p.",
"p.p.p.p.p.p.p.p.p.p.p.p.p.p.p.p.p.p.p.p.p.p.p.p.p.p.p.p.",
"p.p.p.p.p.p.p.p.p.p.p.p.p.p.p.p.p.p.p.p.p.p.p.p.p.p.p.p.",
"p.p.p.p.p.p.p.p.p.p.p.p.p.p.p.p.p.p.p.p.p.p.p.p.p.p.p.p.",
"p.p.p.p.p.p.p.p.p.p.p.p.p.p.p.p.p.p.p.p.p.p.p.p.p.p.p.p.",
"p.p.p.p.p.p.p.p.p.p.p.p.p.p.p.p.p.p.p.p.p.p.p.p.p.p.p.p.",
"p.p.p.p.p.p.p.p.p.p.p.p.p.p.p.p.p.p.p.p.p.p.p.p.p.p.p.p.",
"p.p.p.p.p.p.p.p.p.p.p.p.p.p.p.p.p.p.p.p.p.p.p.p.p.p.p.p.",
"p.p.p.p.p.p.p.p.p.p.p.p.p.p.p.p.p.p.p.p.p.p.p.p.p.p.p.p.",
"p.p.p.p.p.p.p.p.p.p.p.p.p.p.p.p.p.p.p.p.p.p.p.p.p.p.p.p.",
"p.p.p.p.p.p.p.p.p.p.< 5 5 2 9 $ p.p.p.p.p.p.p.p.p.p.p.p.",
"p.p.p.p.p.p.p.p.6 7 1 ; ; ; ; : % 8 p.p.p.p.p.p.p.p.p.p.",
"p.p.p.p.p.p.p., : e h g g f g j r > : p.p.p.p.p.p.p.p.p.",
"p.p.p.p.p.p.p.3 w ; p W W W Q d 7 0 1 5 p.p.p.p.p.p.p.p.",
"p.p.p.p.p.p.& p ( i C I P P U Z s l s * p.p.p.p.p.p.p.p.",
"p.p.p.p.p.p.t E ' ! J X.X...o.K A / Q a p.p.p.p.p.p.p.p.",
"p.p.p.p.p.  q T ] Y } N N m M b D [ R y # p.p.p.p.p.p.p.",
"p.p.p.p.p.@ k ~ F  .=.3.2.<.1.-.*.S ^ z # p.p.p.p.p.p.p.",
"p.p.p.p.p.. x H | B 4.0.9.8.q.5.V n L ) + p.p.p.p.p.p.p.",
"p.p.p.p.p.. v %.O.;.7.u.u.y.i.e.>.+.&.` X - p.p.p.p.p.p.",
"p.p.p.p.9 o c { #.:.6.t.t.r.y.w.,.@.$._ O 4 p.p.p.p.p.p.",
"p.p.p.p.p.p.u G p.p.p.p.p.p.p.p.p.p.p.= p.p.p.p.p.p.p.p.",
"p.p.p.p.p.p.p.p.p.p.p.p.p.p.p.p.p.p.p.p.p.p.p.p.p.p.p.p.",
"p.p.p.p.p.p.p.p.p.p.p.p.p.p.p.p.p.p.p.p.p.p.p.p.p.p.p.p.",
"p.p.p.p.p.p.p.p.p.p.p.p.p.p.p.p.p.p.p.p.p.p.p.p.p.p.p.p."
};
