/* XPM */
static char *_58007fdd8a74790c768f85c6a59ecdcRFczY0gwRDTm8xPy[] = {
/* columns rows colors chars-per-pixel */
"28 28 106 2 ",
"   c None",
".  c #2F2F2F",
"X  c #343434",
"o  c #3C3C3C",
"O  c #434343",
"+  c #4C4C4B",
"@  c #504F4F",
"#  c #52514F",
"$  c #555352",
"%  c #595655",
"&  c #5C5957",
"*  c #5E5B59",
"=  c #615E5C",
"-  c #64615E",
";  c #666360",
":  c #696663",
">  c #6D6A66",
",  c #6F6B68",
"<  c #726E6A",
"1  c #75726E",
"2  c #78746F",
"3  c #777471",
"4  c #797571",
"5  c #7D7974",
"6  c #7E7A78",
"7  c #807C77",
"8  c #827E79",
"9  c #86817C",
"0  c #86827C",
"q  c #86827D",
"w  c #87837D",
"e  c #85817E",
"r  c #85827F",
"t  c #87837E",
"y  c #85817C",
"u  c #85807B",
"i  c #88837F",
"p  c #88847E",
"a  c #88847F",
"s  c #89847F",
"d  c #89857F",
"f  c #878381",
"g  c #888380",
"h  c #898480",
"j  c #898580",
"k  c #8A8681",
"l  c #8B8681",
"z  c #888482",
"x  c #8B8782",
"c  c #8C8785",
"v  c #8C8882",
"b  c #8C8884",
"n  c #8D8984",
"m  c #8C8885",
"M  c #8E8A85",
"N  c #8D8886",
"B  c #8D8986",
"V  c #8F8A86",
"C  c #908B87",
"Z  c #908C87",
"A  c #928D89",
"S  c #928E89",
"D  c #928D8A",
"F  c #95918D",
"G  c #97918E",
"H  c #97928E",
"J  c #97928F",
"K  c #98938F",
"L  c #989290",
"P  c #989390",
"I  c #989490",
"U  c #999490",
"Y  c #999590",
"T  c #999491",
"R  c #999591",
"E  c #9A9591",
"W  c #999492",
"Q  c #9A9592",
"!  c #9A9693",
"~  c #9B9693",
"^  c #9C9793",
"/  c #9B9794",
"(  c #9C9794",
")  c #9D9894",
"_  c #9D9895",
"`  c #9F9A95",
"'  c #9E9996",
"]  c #9F9996",
"[  c #9F9A96",
"{  c #A29D99",
"}  c #A39E9B",
"|  c #A49F9B",
" . c #A49F9C",
".. c #A6A19D",
"X. c #A7A29E",
"o. c #A7A29F",
"O. c #B4ADA8",
"+. c #B5AEAA",
"@. c #B8B1AD",
"#. c #B9B1AD",
"$. c #B9B2AD",
"%. c #BEB4AF",
"&. c #BDB4B0",
"*. c #BEB5B0",
"=. c #BEB7B3",
"-. c #C5BCB7",
/* pixels */
"                                                        ",
"                                                        ",
"    7 b ` *.*.b 8 U U ` &.%.b 8 U ! ( &.*.c 7 W O.-.    ",
"    8 ` o.#.#.[ U ......@.#.{ !  . ...#.#.{ W { =.O.    ",
"    7 H ( U ! ! ~ ( ~ ~ U ! ! ! ! ( U ! U U ~ ~ ..U     ",
"    8 U [ [ U b D ( ( ( ( U b D ! ` ( ` U C D U o.!     ",
"    4 D W U D 5 8 H W H W D 5 8 H W W U D 5 8 H { H     ",
"    ; 5 t j 8 : < 8 i t g 8 : < 8 t t g 8 : < u D t     ",
"    % 2 7 8 4 * ; 5 7 7 8 4 & = 7 8 7 8 5 = - 7 d 7     ",
"    & 3 u y 5 - : 8 u 8 i 4 $ * 7 8 8 8 5 - : 8 v 8     ",
"    & , 1 < : $ % , < < , * O $ < < < < : @ % : 4 <     ",
"    = - * * * $ $ * = & $ + @ $ & * = = & $ $ = ; *     ",
"    4 < * : 5 j t 2 : * ; 3 z 6 * ; 3 < 4 t b b 5 &     ",
"    u 4 * 2 j U H u , * 1 x / m = , t 8 f K { ` j &     ",
"    u 4 = 3 t w j t < = 3 w x 5 = < 8 8 8 j l j 5 *     ",
"    4 , % : 2 < 1 2 ; $ , 3 2 : % ; 3 2 2 2 < < , &     ",
"    = & + % = * * - $ + % = = & + $ * = = = * * - *     ",
"    * : : : 1 8 3 * * : , , * = ; , , - * : 4 8 8 <     ",
"    * 4 u 6 z U b - , u u 5 - : 8 t 8 : - 4 b ` K 8     ",
"    * 4 u t f Z 8 * < u d 5 - : 8 w 8 : ; 5 j b D u     ",
"    % 1 5 4 4 4 < * , 5 5 1 = - 5 7 5 - = 3 5 4 8 5     ",
"    # - : * & ; ; * - ; * $ # $ - : - % $ = : : , ;     ",
"    O + + + + + @ % & $ O o o + $ % $ O O $ $ + % %     ",
"    X X X O + X o + @ + o . X o + @ + o X + O X O +     ",
"    X o O O O O O @ + O O O O O O + @ O O O o O O o     ",
"    . O + o X O @ + o . O + + O . o + @ + X o + O .     ",
"                                                        ",
"                                                        "
};
