/* XPM */
static char *_1417_6b4fbfdff3a43fcb8ba49788b65e484b035e4f756338217c29c64368f3011a00[] = {
/* columns rows colors chars-per-pixel */
"28 28 204 2 ",
"   c #111B1E",
".  c #131B1E",
"X  c #131E22",
"o  c #141D21",
"O  c #151E22",
"+  c #151F22",
"@  c #161F23",
"#  c #161F24",
"$  c #172024",
"%  c #172125",
"&  c #172126",
"*  c #172226",
"=  c #182227",
"-  c #182327",
";  c #1A2326",
":  c #1B2327",
">  c #1B2427",
",  c #1B2428",
"<  c #1B2529",
"1  c #1B262A",
"2  c #1C2428",
"3  c #1C2529",
"4  c #1D262B",
"5  c #1D272B",
"6  c #1C272C",
"7  c #1D272C",
"8  c #1E272C",
"9  c #1E282C",
"0  c #1E282D",
"q  c #1F292D",
"w  c #1E292E",
"e  c #1F292E",
"r  c #1F2A2E",
"t  c #1F2A2F",
"y  c #202A2E",
"u  c #202A2F",
"i  c #202B2F",
"p  c #212B2F",
"a  c #202B30",
"s  c #212B30",
"d  c #212C30",
"f  c #212C31",
"g  c #222C31",
"h  c #222D31",
"j  c #222D32",
"k  c #232D32",
"l  c #222E33",
"z  c #232E33",
"x  c #242E33",
"c  c #242F33",
"v  c #232E34",
"b  c #232F34",
"n  c #242F34",
"m  c #242F35",
"M  c #243035",
"N  c #253035",
"B  c #243036",
"V  c #253036",
"C  c #253136",
"Z  c #253137",
"A  c #263136",
"S  c #263237",
"D  c #263238",
"F  c #263338",
"G  c #27343A",
"H  c #283439",
"J  c #28343A",
"K  c #29353A",
"L  c #28353B",
"P  c #29363C",
"I  c #29373D",
"U  c #2B363C",
"Y  c #2A373D",
"T  c #2A373E",
"R  c #2A383E",
"E  c #2B383F",
"W  c #2B393F",
"Q  c #2C383E",
"!  c #2D383E",
"~  c #2B3940",
"^  c #2B3A41",
"/  c #2C3A40",
"(  c #2C3A41",
")  c #2C3B41",
"_  c #2D3B41",
"`  c #2E3A40",
"'  c #2F3B41",
"]  c #2D3B42",
"[  c #2D3C42",
"{  c #2D3C43",
"}  c #2E3C43",
"|  c #2E3D43",
" . c #2E3D44",
".. c #2F3E45",
"X. c #2F3E46",
"o. c #2F3F46",
"O. c #303C42",
"+. c #313D43",
"@. c #303E44",
"#. c #313E44",
"$. c #333F45",
"%. c #303E46",
"&. c #303F46",
"*. c #313F46",
"=. c #303F47",
"-. c #304047",
";. c #314047",
":. c #324046",
">. c #324047",
",. c #304048",
"<. c #314048",
"1. c #314148",
"2. c #324149",
"3. c #31424A",
"4. c #32424A",
"5. c #33424A",
"6. c #33434B",
"7. c #34434B",
"8. c #37434A",
"9. c #34444C",
"0. c #34454D",
"q. c #35454D",
"w. c #35464D",
"e. c #35454E",
"r. c #35464E",
"t. c #35474F",
"y. c #36464E",
"u. c #36474F",
"i. c #38454B",
"p. c #364750",
"a. c #374850",
"s. c #364851",
"d. c #374851",
"f. c #384951",
"g. c #384952",
"h. c #394A53",
"j. c #3C4A50",
"k. c #3C4A51",
"l. c #394B54",
"z. c #3A4B54",
"x. c #3A4C54",
"c. c #3B4C54",
"v. c #3A4C55",
"b. c #3B4C55",
"n. c #3A4D55",
"m. c #3B4D55",
"M. c #3A4D56",
"N. c #3B4D56",
"B. c #3C4F57",
"V. c #3D4F59",
"C. c #3D5059",
"Z. c #3D505A",
"A. c #3E505A",
"S. c #3E515B",
"D. c #3E525B",
"F. c #3D525C",
"G. c #3F535C",
"H. c #3F545E",
"J. c #404E54",
"K. c #404E55",
"L. c #45545B",
"P. c #46545B",
"I. c #46555C",
"U. c #48575E",
"Y. c #405660",
"T. c #415660",
"R. c #425761",
"E. c #435862",
"W. c #435963",
"Q. c #445963",
"!. c #445964",
"~. c #445A64",
"^. c #465B66",
"/. c #465C66",
"(. c #4D5C64",
"). c #4C5D65",
"_. c #4D5D65",
"`. c #475D68",
"'. c #475E69",
"]. c #485E69",
"[. c #495F6A",
"{. c #4F5F68",
"}. c #49606B",
"|. c #4F6068",
" X c #4A616C",
".X c #506068",
"XX c #506069",
"oX c #53636C",
"OX c #54656D",
"+X c #4D6571",
"@X c #4E6671",
"#X c #4D6673",
"$X c #4E6773",
"%X c #576871",
"&X c #516A76",
"*X c #526B77",
"=X c #526B78",
"-X c #526C78",
";X c #536D79",
":X c #536E79",
">X c #76929F",
",X c #83A0AE",
"<X c #A1C1CF",
"1X c None",
/* pixels */
"1X1X1X1X1X1X1X1X1X1X1X1X1X1X1X1X1X1X1X1X1X1X1X1X1X1X1X1X",
"1X1X1X1X1X1X1X1X1X1X1X1X1X1X1X1X1X1X1X1X1X1X1X1X1X1X1X1X",
"1X1Xa q v w.A.c.~.&X:X=X=X=X=X=X=X=X=X=X=X=X$X#X,X<X1X1X",
"1X1X;.2./ 0.x.h.C.E.Q.E.Q.!.~.E.Y.R.!.~.W.T.F.H.>X,X1X1X",
"1X1XV.v.......&.T i q s e 0 9 p n g 0 9 y x y 2 H.#X1X1X",
"1X1XV.v.-.u.f.<.~ P %.7.J , @ 8..XJ.<   ! (.P.y F.$X1X1X",
"1X1XB.g.[ a.x.2.| ..d.m._ 7 = j.%XI.0 X #.OX(.x T.=X1X1X",
"1X1XV.q.M } 6.;.....1.1.G q q H $.Q f t A #.! y W.=X1X1X",
"1X1XV.9.r b L R ] ..o.} I F J l & 1 j z u O . 9 ~.=X1X1X",
"1X1XV.q.a 0 r d J ..-.X... ...E j i f j f q 3 0 !.=X1X1X",
"1X1XV.4.c K.L.U t P P I  .1.1. .I P P u P D.l.f R.=X1X1X",
"1X1XV.,.A XX%X$.* f a j E .. ...X.-...f ..@X`.v T.=X1X1X",
"1X1XV.6.k i.k.K w f f j Z G D R &.1.&.W ..Z.u.y R.=X1X1X",
"1X1XV.q.i - - a z j j j f a y Z ) { [ o.../ Z j ~.=X1X1X",
"1X1XV.q.a 5 9 f j j j j j j g z V M Z ] &.~ P E `.*X1X1X",
"1X1XV.9.f Y ( B d j j j j j j g s u f S =.C.n.X.'.*X1X1X",
"1X1XV.6.l y.z.L q j j j j j j j j j j > &.+X X=./.*X1X1X",
"1X1XV.9.h } <.S i j j j j j j j j j j 4 P D.N.L ^.;X1X1X",
"1X1XV.q.a r s j j j j j j j j j j j j j f q 3 8 E.&X1X1X",
"1X1XV.q.q $ % a z j i q d j z e ; 8 j v u O o q N.~.1X1X",
"1X1XV.q.M ' +.A i j S L B f s G ..T f u A #.` h 4.b.1X1X",
"1X1XB.t.@.{.oXO.# a <.z.( 9 > d.+XG.q O #.OX_.A ,.B.1X1X",
"1X1XN.s.1.).|.:.6 u } y.Y 5 : 6.].M.9 + ` _.U.N 4.Z.1X1X",
"1X1XN.h. .*.>...I f s l f a i j C v a u g N c s e.Z.1X1X",
"1X1X}.[.h.p.s.v.h.q.6.6.9.q.q.6.<.5.q.r.9.3.^ M ..<.1X1X",
"1X1X-X}.N.N.B.B.B.V.V.V.V.V.V.V.V.V.V.V.V.S.y.m e a 1X1X",
"1X1X1X1X1X1X1X1X1X1X1X1X1X1X1X1X1X1X1X1X1X1X1X1X1X1X1X1X",
"1X1X1X1X1X1X1X1X1X1X1X1X1X1X1X1X1X1X1X1X1X1X1X1X1X1X1X1X"
};
