/* XPM */
static char *a274a14feb4849a6e82b7c62420079f8k7PxPcnDNdvR8Mdj[] = {
/* columns rows colors chars-per-pixel */
"28 28 8 1 ",
"  c None",
". c #090909",
"X c gray10",
"o c #232323",
"O c gray17",
"+ c #263C6C",
"@ c #4E4E4E",
"# c #EEC39A",
/* pixels */
"              XXX           ",
"             XXXXX          ",
"              ##XX          ",
"              ++++          ",
"          O    ++           ",
"     O    OOO X++XX         ",
"   @@@@@@@@@@@@@@@++        ",
"      @@XXOXXX++O@++        ",
"         X@+XX++++++        ",
"          @++ XX+++X        ",
"             .....XX        ",
"             .X.X.XX        ",
"             .....XX        ",
"              ++++@@@       ",
"             .X@XXXX        ",
"             X++++XX        ",
"              ++++X+        ",
"             +++ +++        ",
"             +++  +++       ",
"             ++   +++       ",
"             XX    XX       ",
"            XX     XX       ",
"            ++      ++      ",
"            ++      ++      ",
"            +        +      ",
"            o        o      ",
"           oo        oo     ",
"          ooo        oo     "
};
